<?xml version="1.0" encoding="UTF-8"?>
<svg id="Layer_1" xmlns="http://www.w3.org/2000/svg" baseProfile="tiny" version="1.2" viewBox="0 0 250 70">
  <!-- Generator: Adobe Illustrator 29.2.1, SVG Export Plug-In . SVG Version: 2.1.0 Build 116)  -->
  <g>
    <path d="M99.81,35.39c-2-.37-4-.75-6.01-1.1-.11-1.01-.41-2.05-.78-2.98-.1-.26-.26-.68-.42-.89-.06-.24-.18-.48-.3-.7-.28-.49-.74-.82-.67-1.41.08-.69.93-2.13,1.23-2.87.7-1.73,1.25-3.6,1.53-5.45l-5.13,5.88c-.08.06-.3-.38-.36-.46-1.24-1.69-3.12-2.48-4.98-3.31,2.53-1.32,5.19-2.38,7.76-3.63,2.69-1.21,5.82-2.92,7.05-5.77.67-1.55.38-3.16.44-4.8l-.2.04c-.17.6-.33,1.25-.59,1.82-.77,1.67-2.68,3.04-4.2,4-2.7,1.71-5.68,2.94-8.51,4.4-6.97,3.37-14.25,6.56-20.24,11.55-3.45,2.87-6.39,6.33-7.97,10.6-.25.68-.54,1.42-.55,2.15l-.18-.08c-.86-3.68-2.89-7.07-5.44-9.82-5.1-5.51-11.95-8.88-18.64-12.08-4.12-1.97-8.41-3.83-12.38-6.1-2.04-1.17-4.57-2.85-5.33-5.19-.08-.26-.26-1.19-.41-1.33-.17-.16-.19.09-.2.24-.13,1.91.16,4.22,1.19,5.86,1.88,3,7.75,5.17,10.94,6.6.85.38,1.81.78,2.63,1.23.06.03.72.38.62.47-.52.08-1.05.32-1.53.54-1.03.47-2.36,1.26-3.1,2.11-.12.14-.65.98-.78.95-.02,0-.22-.17-.25-.2-.4-.41-.82-1.07-1.23-1.54-1.19-1.37-2.55-2.61-3.5-4.17-.16.01-.14.19-.13.31.03.36.22,1.08.32,1.46.6,2.38,1.75,4.56,2.62,6.83-1.03,1.78-1.87,3.69-2.31,5.72-.06.15-.25.17-.39.18-1.39.15-2.78.36-4.17.6-1.01.17-2,.43-3.02.52v.09c.41.22.95.27,1.42.39,1.94.47,3.86,1.03,5.73,1.71.08.06.1.23.11.34.05.41.06.86.09,1.27.64,7.91,6.4,13.14,13.83,14.95.57.14,1.11.15,1.71.21.96.1,1.28.07,2.23,0,1.33-.11,2.33-.2,3.6-.64,4.79-1.62,9.25-5.12,10.73-10.11.34-1.14.55-2.53.62-3.72.04-.69-.19-1.34-.13-2.03.6.67,1.01,1.58,1.36,2.41,1.62,3.84,2.59,8.69,3.14,12.82.03.2-.07.78.21.82.11.02.06-.05.07-.11.56-3.85,1.19-7.88,2.49-11.56.19-.55.51-1.08.57-1.66l1.16-2.5c.03-.07.19-.02.2.03.05.2-.02.72,0,.97.1,2.13.39,4.04,1.25,5.99,2.7,6.12,9.63,9.98,16.25,9.23,5.71-.65,10.28-3.67,13.22-8.56,1.32-2.19,2.06-4.72,2.05-7.29,0-.12-.05-.23-.05-.35,0-.11.06-.49.12-.56l7.2-1.92v-.04c-.47-.3-1.03-.27-1.57-.37ZM34.18,51.57c-5.93-1.04-11.24-6.11-11.9-12.2-.54-5.03,1.46-10.3,5.63-13.25,1.36-.96,3.45-1.93,5.14-2.04,1.51-.1,3.04.4,4.46.89,1.55.54,3.42,1.62,4.85,2.46,2.29,1.36,4.27,2.98,5.65,5.3,2.01,3.38,2.29,7.48.76,11.1-2.39,5.64-8.6,8.79-14.59,7.74ZM87.82,47.02c-3.52,3.88-9.31,5.75-14.39,4.27-3.14-.92-6.17-3.24-7.81-6.08-2.04-3.53-2.08-7.28-.7-11.07.38-1.06.8-1.69,1.49-2.57.21-.27.74-.97,1-1.14.41-.27.42-.34.76-.65,1.82-1.66,4.31-3.06,6.54-4.09,1.35-.62,3.26-1.39,4.73-1.6,2.37-.34,5.82,1.57,7.54,3.13.97.88,1.77,1.93,2.5,3.01.04.21.45.84.57,1.1,1.63,3.45,1.81,7.61.5,11.18-.43,1.18-1.07,2.27-1.74,3.32-.07.02-.83,1.02-.98,1.18Z" fill="#c9a46b"/>
    <path d="M40.41,11.42c4.89-.34,10.07.07,13.84,3.5.75.68,2.1,2.27,2.31,3.27.04.18-.01.38.01.57.03.2.12.37.25.13.13-.24.24-.73.36-1.02,2.58-6.16,11.15-6.8,16.88-6.3,1.32.11,2.63.33,3.95.49-.54-.45-1.21-.74-1.84-1.03-4.21-1.93-8.48-2.86-13.05-1.53-2.41.7-4.73,2.02-6.35,3.95-.31-.26-.56-.62-.87-.91-2.5-2.4-6.02-3.5-9.43-3.72-.43-.03-1.52-.06-1.91,0-.12.02-.17.11-.27.13-.16.03-.36-.02-.53,0-2.15.25-5.81,1.56-7.69,2.65-.17.1-.38.22-.49.38.24-.02.5-.02.74-.04,1.37-.13,2.73-.39,4.1-.49Z" fill="#c9a46b"/>
    <path d="M58.98,32.62c-.03.2-.13,1.06-.09,1.19.03.09.21.11.22.04.06-.4.13-.53.34-.86.29-.46.7-.98,1.05-1.41,3.21-4.05,7.5-6.86,11.72-9.74.09-.06.18-.12.27-.18.01-.01.03-.03.04-.04,6.52-4.43,13.25-8.58,19.68-13.16,1.92-1.37,4.74-3.14,5.89-5.21.53-.94.85-2.14.67-3.21-.72.7-1.5,1.33-2.3,1.93-9.36,7.05-19.8,12.79-29.24,19.73-3.69,2.71-7.58,6.08-8.24,10.91Z" fill="#c9a46b"/>
    <path d="M22.55,9.28c1.52,1.21,3.24,2.13,4.85,3.2.59.39,1.16.88,1.74,1.29,3.03,2.14,6.12,4.17,9.29,6.09,2.17,1.32,4.27,2.81,6.37,4.26,2.41,1.67,4.44,3.13,6.47,5.28,1.03,1.09,2.66,3.09,3.14,4.48.02.06.15.32.24.22.04-.04-.15-.78-.17-.92-.06-.36-.07-.54-.16-.91-.85-3.53-2.65-5.98-5.28-8.38-2.2-2-4.75-3.66-7.21-5.34-4.7-3.21-9.5-6.28-14.28-9.37-3.12-2.13-6.3-4.18-9.38-6.38-.98-.7-1.98-1.4-2.9-2.18-.19-.16-.41-.41-.6-.56-.04-.03-.06-.09-.13-.07v.91c0,1.15,1.33,2.97,2.09,3.79,1.68,1.79,3.89,3.23,5.93,4.57Z" fill="#c9a46b"/>
    <path d="M68.34,54.01c-3.79,1.95-7.31,4.6-9.98,7.94-.56.71-1.09,1.44-1.49,2.25-.15.01-.53-.73-.63-.89-2.45-3.75-6.79-7.41-10.81-9.39-.17-.09-.79-.4-.94-.31-.08.04-.01.07.02.11.08.09.24.16.33.25,1.27,1.17,2.65,2.77,3.82,4.07,2.38,2.65,4.6,5.44,6.43,8.5.38.64,1.1,1.75,1.34,2.4.12.34.08.81.36,1.04,0-.09,0-.17.02-.27.15-.43.74-1.32.99-1.77,1.9-3.34,4.07-6.55,6.63-9.42l4.39-4.57c-.12-.14-.36-.03-.49.04Z" fill="#c9a46b"/>
    <path d="M44.93,37.34c-.16.17-.8.53-1.04.66-2.4,1.3-5.42.8-7.5-.9-2.13-1.74-2.91-4.71-1.71-7.24.07-.16.79-1.24.71-1.32-.08-.01-.14,0-.21.03-.19.08-.62.36-.81.48-5.96,3.77-4.39,12.87,2.74,13.97,1.14.17,2.27-.05,3.36-.37,2.59-.78,5.08-3.24,5.04-6.09-.25.17-.4.59-.58.78Z" fill="#c9a46b"/>
    <path d="M78.33,28.4c.48,1.14,1.12,2.13,1.21,3.41.36,5.42-6.3,8.87-10.56,5.57l-.94-.86c-.03.1-.05.18-.04.28.02.21.22.86.29,1.1,1.13,3.69,4.91,5.65,8.64,5.03,4.73-.78,7.27-6.04,5.43-10.37-.78-1.83-2.28-3.26-4.02-4.16Z" fill="#c9a46b"/>
  </g>
  <g>
    <g>
      <path d="M109.57,32.77v-14.1h2.77l5.77,9.42v-9.42h2.64v14.1h-2.86l-5.69-9.2v9.2h-2.64Z" fill="#cfac72"/>
      <path d="M123.88,25.81c0-1.44.21-2.64.64-3.62.32-.72.76-1.36,1.31-1.93.55-.57,1.16-.99,1.82-1.27.88-.37,1.89-.56,3.04-.56,2.08,0,3.74.64,4.99,1.93,1.25,1.29,1.87,3.08,1.87,5.38s-.62,4.06-1.86,5.34c-1.24,1.29-2.89,1.93-4.96,1.93s-3.76-.64-5-1.92c-1.24-1.28-1.86-3.04-1.86-5.29ZM126.81,25.71c0,1.6.37,2.81,1.11,3.63.74.82,1.67,1.24,2.81,1.24s2.07-.41,2.79-1.23c.73-.82,1.09-2.04,1.09-3.68s-.35-2.82-1.06-3.62c-.71-.79-1.65-1.19-2.82-1.19s-2.12.4-2.84,1.21c-.72.8-1.08,2.02-1.08,3.64Z" fill="#cfac72"/>
      <path d="M149.49,27.59l2.76.87c-.42,1.54-1.13,2.68-2.11,3.43-.98.75-2.23,1.12-3.75,1.12-1.87,0-3.41-.64-4.62-1.92s-1.81-3.03-1.81-5.25c0-2.35.61-4.17,1.82-5.47,1.21-1.3,2.8-1.95,4.78-1.95,1.72,0,3.13.51,4.2,1.53.64.6,1.12,1.47,1.44,2.6l-2.82.67c-.17-.73-.51-1.31-1.04-1.73-.53-.42-1.17-.63-1.93-.63-1.05,0-1.89.38-2.54,1.13s-.98,1.97-.98,3.65c0,1.78.32,3.05.96,3.81.64.76,1.47,1.14,2.5,1.14.76,0,1.41-.24,1.95-.72.54-.48.94-1.24,1.17-2.27Z" fill="#cfac72"/>
      <path d="M158.56,32.77v-11.72h-4.18v-2.39h11.21v2.39h-4.18v11.72h-2.85Z" fill="#cfac72"/>
      <path d="M168.1,18.67h2.85v7.64c0,1.21.04,2,.11,2.36.12.58.41,1.04.87,1.39.46.35,1.09.52,1.88.52s1.42-.16,1.83-.5.66-.74.74-1.22.13-1.28.13-2.4v-7.8h2.85v7.41c0,1.69-.08,2.89-.23,3.59-.15.7-.44,1.29-.85,1.77-.41.48-.97.86-1.66,1.15-.69.29-1.6.43-2.71.43-1.35,0-2.37-.16-3.06-.47-.7-.31-1.24-.71-1.65-1.21-.4-.5-.67-1.02-.8-1.56-.19-.81-.28-2-.28-3.58v-7.52Z" fill="#cfac72"/>
      <path d="M183.04,32.77v-14.1h5.99c1.51,0,2.6.13,3.28.38.68.25,1.23.7,1.64,1.35.41.65.62,1.39.62,2.22,0,1.06-.31,1.93-.93,2.62-.62.69-1.55,1.12-2.79,1.3.62.36,1.12.75,1.52,1.18.4.43.94,1.19,1.62,2.29l1.72,2.75h-3.41l-2.06-3.07c-.73-1.1-1.23-1.79-1.5-2.07s-.55-.48-.86-.59c-.3-.11-.78-.16-1.43-.16h-.58v5.89h-2.85ZM185.89,24.63h2.11c1.37,0,2.22-.06,2.56-.17.34-.12.61-.31.8-.6.19-.28.29-.63.29-1.06,0-.47-.13-.86-.38-1.15s-.61-.48-1.07-.55c-.23-.03-.92-.05-2.08-.05h-2.22v3.58Z" fill="#cfac72"/>
      <path d="M197.98,32.77v-14.1h2.77l5.77,9.42v-9.42h2.64v14.1h-2.86l-5.68-9.2v9.2h-2.65Z" fill="#cfac72"/>
      <path d="M225.59,32.77h-3.1l-1.23-3.2h-5.64l-1.16,3.2h-3.02l5.49-14.1h3.01l5.65,14.1ZM220.34,27.19l-1.94-5.23-1.9,5.23h3.85Z" fill="#cfac72"/>
      <path d="M227.87,32.77v-13.98h2.85v11.61h7.08v2.38h-9.93Z" fill="#cfac72"/>
    </g>
    <g>
      <path d="M127.16,51.32l-3.37-14.1h2.91l2.12,9.69,2.58-9.69h3.38l2.47,9.85,2.16-9.85h2.87l-3.42,14.1h-3.02l-2.81-10.54-2.8,10.54h-3.09Z" fill="#cfac72"/>
      <path d="M144.35,51.32v-14.1h2.85v14.1h-2.85Z" fill="#cfac72"/>
      <path d="M149.88,46.73l2.77-.27c.17.93.51,1.61,1.02,2.05.51.44,1.2.65,2.06.65.92,0,1.61-.19,2.07-.58s.7-.84.7-1.36c0-.33-.1-.62-.29-.85-.2-.23-.54-.44-1.02-.61-.33-.12-1.09-.32-2.28-.62-1.53-.38-2.6-.84-3.21-1.39-.87-.78-1.3-1.72-1.3-2.84,0-.72.2-1.39.61-2.02.41-.63.99-1.1,1.76-1.43.77-.33,1.69-.49,2.77-.49,1.77,0,3.1.39,4,1.16.89.78,1.36,1.81,1.41,3.11l-2.85.13c-.12-.72-.38-1.24-.78-1.56-.4-.32-1-.48-1.8-.48s-1.47.17-1.94.51c-.3.22-.45.51-.45.87,0,.33.14.62.42.86.36.3,1.23.62,2.62.94,1.39.33,2.41.67,3.07,1.02s1.18.83,1.56,1.43.56,1.36.56,2.25c0,.81-.22,1.56-.67,2.27-.45.71-1.08,1.23-1.9,1.57s-1.84.51-3.07.51c-1.78,0-3.15-.41-4.11-1.24-.95-.82-1.53-2.02-1.71-3.6Z" fill="#cfac72"/>
      <path d="M164.44,51.32v-14.1h10.46v2.39h-7.61v3.13h7.08v2.37h-7.08v3.84h7.88v2.38h-10.72Z" fill="#cfac72"/>
      <path d="M177.69,44.36c0-1.44.21-2.64.64-3.62.32-.72.76-1.36,1.31-1.93.55-.57,1.16-.99,1.82-1.27.88-.37,1.89-.56,3.04-.56,2.08,0,3.74.64,4.99,1.93,1.25,1.29,1.87,3.08,1.87,5.38s-.62,4.06-1.86,5.34c-1.24,1.29-2.89,1.93-4.96,1.93s-3.76-.64-5-1.92c-1.24-1.28-1.86-3.04-1.86-5.28ZM180.62,44.26c0,1.6.37,2.81,1.11,3.63s1.67,1.24,2.81,1.24,2.07-.41,2.79-1.23c.73-.82,1.09-2.04,1.09-3.68s-.35-2.82-1.06-3.62-1.65-1.19-2.82-1.19-2.12.4-2.84,1.21c-.72.8-1.08,2.02-1.08,3.64Z" fill="#cfac72"/>
      <path d="M196.28,51.32l-3.37-14.1h2.91l2.13,9.69,2.58-9.69h3.39l2.47,9.85,2.16-9.85h2.87l-3.42,14.1h-3.02l-2.81-10.54-2.8,10.54h-3.09Z" fill="#cfac72"/>
      <path d="M213.64,51.32v-13.98h2.85v11.61h7.08v2.38h-9.93Z" fill="#cfac72"/>
    </g>
    <rect x="109.57" y="43.26" width="11.19" height="2.03" fill="#cfac72"/>
    <rect x="226.6" y="43.26" width="11.19" height="2.03" fill="#cfac72"/>
  </g>
</svg>